#!OML:ASF F:\VICON\USERDATA\INSTALL\rory3\rory3.ASF
:FULLY-SPECIFIED
:DEGREES
161
root 0.56131 17.6051 -1.22827 -1.54079 -3.35953 4.91699
lowerback 6.5441 0.294067 -3.74999
upperback 1.43734 0.146521 0.420997
thorax -2.19554 0.0935659 2.52896
lowerneck -16.1743 -2.15589 -9.25468
upperneck 20.7524 -1.63743 4.59835
head 9.33095 -0.989212 2.92264
rclavicle -3.97569e-016 1.74931e-014
rhumerus -25.0908 -8.58923 -79.2036
rradius 31.9797
rwrist 7.83446
rhand -12.6064 16.7741
rfingers 7.12502
rthumb 13.4726 -12.7702
lclavicle -3.97569e-016 1.74931e-014
lhumerus -36.6767 12.0401 82.1297
lradius 21.7557
lwrist -18.8742
lhand -13.6227 24.5236
lfingers 7.12502
lthumb 12.4929 54.1302
rfemur -21.256 -0.578437 15.8868
rtibia 77.3731
rfoot 0.667764 -8.93949
rtoes 3.14807
lfemur -9.87667 -1.7003 -28.5494
ltibia 22.7598
lfoot -8.10089 0.365848
ltoes -1.06803
162
root 0.558801 17.6021 -1.05442 -1.52041 -3.02551 4.69526
lowerback 6.569 0.0511965 -3.52638
upperback 1.42355 -0.16023 0.513083
thorax -2.20216 -0.0600297 2.52395
lowerneck -16.2019 -2.138 -9.4334
upperneck 20.917 -1.62137 4.83404
head 9.39507 -0.972861 3.03995
rclavicle 9.88954e-015 -7.95139e-016
rhumerus -25.4699 -8.46963 -79.2381
rradius 31.9581
rwrist 7.57537
rhand -13.1535 17.7826
rfingers 7.12502
rthumb 12.9452 -11.7958
lclavicle 9.88954e-015 -7.95139e-016
lhumerus -36.2466 11.6668 82.1286
lradius 22.0933
lwrist -18.4539
lhand -13.084 25.693
lfingers 7.12502
lthumb 13.0122 55.2672
rfemur -22.608 -1.06185 16.2003
rtibia 77.3588
rfoot -0.926447 -9.20648
rtoes 3.02046
lfemur -9.30034 -1.66665 -28.3941
ltibia 22.8652
lfoot -8.64978 0.234467
ltoes -1.59145
163
root 0.55548 17.589 -0.879578 -1.46257 -2.65701 4.56747
lowerback 6.59976 -0.167425 -3.492
upperback 1.37236 -0.447366 0.64006
thorax -2.25133 -0.201408 2.66023
lowerneck -16.0486 -2.0766 -9.43123
upperneck 20.8284 -1.54107 4.79182
head 9.32909 -0.939996 3.03334
rclavicle -9.29318e-015 1.03368e-014
rhumerus -25.7558 -8.5914 -79.1245
rradius 31.6127
rwrist 7.72876
rhand -13.6813 18.6911
rfingers 7.12502
rthumb 12.4364 -10.9189
lclavicle -9.29318e-015 1.03368e-014
lhumerus -35.9106 10.9854 82.3202
lradius 22.5741
lwrist -17.6155
lhand -13.9276 24.7084
lfingers 7.12502
lthumb 12.1989 54.3327
rfemur -23.9546 -1.56758 16.426
rtibia 77.1708
rfoot -2.33689 -9.36362
rtoes 3.14793
lfemur -8.77148 -1.79367 -28.3462
ltibia 23.0674
lfoot -9.32365 0.272185
ltoes -2.2091
164
root 0.555737 17.5796 -0.70203 -1.50334 -2.46258 4.67709
lowerback 6.78254 -0.293872 -3.59519
upperback 1.28562 -0.630728 0.647765
thorax -2.42846 -0.287305 2.74436
lowerneck -15.8556 -2.10614 -9.30212
upperneck 20.8378 -1.59947 4.63371
head 9.29938 -0.976732 2.94898
rclavicle 4.27387e-015 -1.59028e-015
rhumerus -26.1761 -8.53551 -79.139
rradius 31.5572
rwrist 7.23501
rhand -13.6871 18.5509
rfingers 7.12502
rthumb 12.4308 -11.0595
lclavicle 4.27387e-015 -1.59028e-015
lhumerus -35.6453 10.0262 82.5146
lradius 23.1308
lwrist -16.8675
lhand -14.3262 24.6154
lfingers 7.12502
lthumb 11.8145 54.2621
rfemur -25.2007 -1.93792 16.3577
rtibia 76.7912
rfoot -3.42693 -9.38793
rtoes 3.9555
lfemur -8.17566 -1.91055 -28.5724
ltibia 23.3397
lfoot -10.1812 0.505491
ltoes -2.4368
165
root 0.5582 17.5702 -0.522551 -1.45052 -2.37287 4.79855
lowerback 6.79107 -0.37427 -3.60316
upperback 1.23118 -0.74098 0.591427
thorax -2.48201 -0.340409 2.70054
lowerneck -15.8292 -2.18087 -9.12503
upperneck 20.9547 -1.70819 4.435
head 9.34095 -1.03784 2.83791
rclavicle -9.59136e-015 -4.77083e-015
rhumerus -26.7487 -8.34926 -79.2188
rradius 32.0644
rwrist 6.33449
rhand -13.4309 17.9129
rfingers 7.12502
rthumb 12.6778 -11.6823
lclavicle -9.59136e-015 -4.77083e-015
lhumerus -35.1837 9.19691 82.5663
lradius 23.5624
lwrist -16.7555
lhand -13.7563 25.0897
lfingers 7.12502
lthumb 12.364 54.7041
rfemur -26.5564 -2.10804 16.2752
rtibia 76.2248
rfoot -4.72807 -9.3894
rtoes 3.21975
lfemur -7.70335 -2.07086 -28.7979
ltibia 23.6249
lfoot -10.9208 0.731205
ltoes -1.28282
